<svg xmlns="http://www.w3.org/2000/svg" viewBox="0 0 24 24" height="24" width="24" preserveAspectRatio="xMidYMid meet" class="x1xp8n7a" fill="none"><title>media-editor-drawing</title><path fill-rule="evenodd" clip-rule="evenodd" d="M1.35999 18.0342V22.6393H5.99278L18.9143 9.66526L14.2817 5.06126L1.35999 18.0342ZM16.1582 9.67289L5.18355 20.6911H3.30815V18.8389L14.2887 7.81484L16.1582 9.67289Z" fill="#5b6368"/><path fill-rule="evenodd" clip-rule="evenodd" d="M17.5747 1.78958L15.3879 3.96288L20.0211 8.56752L22.2067 6.39544C22.4885 6.1154 22.6393 5.78963 22.6393 5.45357C22.6393 5.11751 22.4885 4.79175 22.2067 4.51171L19.4676 1.78958C19.1858 1.50949 18.8584 1.36 18.5212 1.36C18.1839 1.36 17.8565 1.50949 17.5747 1.78958ZM20.0211 5.82089L18.1516 3.96288L18.5212 3.59557L20.3907 5.45357L20.0211 5.82089Z" fill="#5b6368"/></svg>