<svg xmlns="http://www.w3.org/2000/svg" viewBox="0 0 18 20" height="20" preserveAspectRatio="xMidYMid meet" class="xkgndj" fill="none"><title>calendar-filled</title><path d="M11.4306 15.8334C10.75 15.8334 10.1748 15.5984 9.70486 15.1285C9.23495 14.6586 9 14.0834 9 13.4028C9 12.7223 9.23495 12.147 9.70486 11.6771C10.1748 11.2072 10.75 10.9723 11.4306 10.9723C12.1111 10.9723 12.6863 11.2072 13.1562 11.6771C13.6262 12.147 13.8611 12.7223 13.8611 13.4028C13.8611 14.0834 13.6262 14.6586 13.1562 15.1285C12.6863 15.5984 12.1111 15.8334 11.4306 15.8334ZM2.19444 19.7223C1.65972 19.7223 1.20197 19.5319 0.821181 19.1511C0.440394 18.7703 0.25 18.3126 0.25 17.7778V4.16672C0.25 3.632 0.440394 3.17424 0.821181 2.79346C1.20197 2.41267 1.65972 2.22228 2.19444 2.22228H3.16667V1.25005C3.16667 0.974591 3.25984 0.743688 3.44618 0.557346C3.63252 0.371003 3.86343 0.277832 4.13889 0.277832C4.41435 0.277832 4.64525 0.371003 4.8316 0.557346C5.01794 0.743688 5.11111 0.974591 5.11111 1.25005V2.22228H12.8889V1.25005C12.8889 0.974591 12.9821 0.743688 13.1684 0.557346C13.3547 0.371003 13.5856 0.277832 13.8611 0.277832C14.1366 0.277832 14.3675 0.371003 14.5538 0.557346C14.7402 0.743688 14.8333 0.974591 14.8333 1.25005V2.22228H15.8056C16.3403 2.22228 16.798 2.41267 17.1788 2.79346C17.5596 3.17424 17.75 3.632 17.75 4.16672V17.7778C17.75 18.3126 17.5596 18.7703 17.1788 19.1511C16.798 19.5319 16.3403 19.7223 15.8056 19.7223H2.19444ZM2.19444 17.7778H15.8056V8.05561H2.19444V17.7778Z" fill="#ff2e74"/></svg>