<svg xmlns="http://www.w3.org/2000/svg" viewBox="0 0 24 24" height="25" width="25" preserveAspectRatio="xMidYMid meet" class="" fill="none"><title>e2e-message</title><path fill-rule="evenodd" clip-rule="evenodd" d="M13.1468 3H5.19245C3.43784 3 2 4.43784 2 6.19245V10.2361C2 11.9907 3.43784 13.4286 5.19245 13.4286H5.91071V16.0357L9.38734 13.4286H13.1468C14.9027 13.4286 16.3393 11.9907 16.3393 10.2361V6.19245C16.3393 4.43784 14.9027 3 13.1468 3Z" stroke="#8696A0" stroke-width="1.2" stroke-linejoin="round"/><path d="M7.21436 15.0581V15.4505C7.21436 17.2051 8.65219 18.6429 10.4068 18.6429H14.1663L17.6429 21.2501V18.6429H18.3612C20.1158 18.6429 21.5536 17.2051 21.5536 15.4505V11.4068C21.5536 9.65219 20.1158 8.21436 18.3612 8.21436H16.3394" stroke="#8696A0" stroke-width="1.2" stroke-linejoin="round"/></svg>